<svg width="15" height="15" viewBox="0 0 15 15" fill="none" xmlns="http://www.w3.org/2000/svg">
<path fill-rule="evenodd" clip-rule="evenodd" d="M1.97221 2.01141C-0.657404 4.69329 -0.657404 9.04148 1.97221 11.7234C4.60183 14.4052 8.86528 14.4052 11.4949 11.7234C14.1245 9.04148 14.1245 4.69329 11.4949 2.01141C8.86528 -0.67047 4.60183 -0.67047 1.97221 2.01141ZM3.01181 3.07167C5.06727 0.97535 8.39984 0.97535 10.4553 3.07167C12.5108 5.16798 12.5108 8.56679 10.4553 10.6631C8.39984 12.7594 5.06727 12.7594 3.01181 10.6631C0.956343 8.56679 0.956343 5.16798 3.01181 3.07167Z" fill="#999999"/>
<path d="M14.7714 13.7066L11.7358 10.6107C11.0428 9.90388 10.0032 10.9641 10.6962 11.671L13.7318 14.7669C14.4249 15.4737 15.4645 14.4135 14.7714 13.7066Z" fill="#999999"/>
</svg>
